<mxfile host="app.diagrams.net" agent="Mozilla/5.0 (Windows NT 10.0; Win64; x64) AppleWebKit/537.36 (KHTML, like Gecko) Chrome/135.0.0.0 Safari/537.36" version="26.2.12">
  <diagram name="Sayfa -1" id="X-VM2zPhGA3CFvxgHZqU">
    <mxGraphModel dx="1228" dy="628" grid="1" gridSize="10" guides="1" tooltips="1" connect="1" arrows="1" fold="1" page="1" pageScale="1" pageWidth="827" pageHeight="1169" math="0" shadow="0">
      <root>
        <mxCell id="0" />
        <mxCell id="1" parent="0" />
        <mxCell id="dp5F_s6Nj8RVhwZsUuF0-4" value="Müşteri" style="shape=umlActor;verticalLabelPosition=bottom;verticalAlign=top;html=1;outlineConnect=0;textShadow=0;" vertex="1" parent="1">
          <mxGeometry x="70" y="305" width="30" height="60" as="geometry" />
        </mxCell>
        <mxCell id="dp5F_s6Nj8RVhwZsUuF0-5" value="Bayi" style="shape=umlActor;verticalLabelPosition=bottom;verticalAlign=top;html=1;outlineConnect=0;textShadow=0;" vertex="1" parent="1">
          <mxGeometry x="630" y="315" width="30" height="60" as="geometry" />
        </mxCell>
        <mxCell id="dp5F_s6Nj8RVhwZsUuF0-6" value="Stoktaki Araçları Sorgulama" style="ellipse;whiteSpace=wrap;html=1;" vertex="1" parent="1">
          <mxGeometry x="180" y="390" width="120" height="80" as="geometry" />
        </mxCell>
        <mxCell id="dp5F_s6Nj8RVhwZsUuF0-7" value="Sipariş Verme" style="ellipse;whiteSpace=wrap;html=1;" vertex="1" parent="1">
          <mxGeometry x="170" y="160" width="120" height="80" as="geometry" />
        </mxCell>
        <mxCell id="dp5F_s6Nj8RVhwZsUuF0-8" value="Stok" style="shape=umlActor;verticalLabelPosition=bottom;verticalAlign=top;html=1;outlineConnect=0;textShadow=0;" vertex="1" parent="1">
          <mxGeometry x="345" y="485" width="30" height="60" as="geometry" />
        </mxCell>
        <mxCell id="dp5F_s6Nj8RVhwZsUuF0-9" value="Araç Çekme" style="ellipse;whiteSpace=wrap;html=1;" vertex="1" parent="1">
          <mxGeometry x="430" y="405" width="120" height="80" as="geometry" />
        </mxCell>
        <mxCell id="dp5F_s6Nj8RVhwZsUuF0-10" value="" style="endArrow=classic;html=1;rounded=0;exitX=1;exitY=0.3333333333333333;exitDx=0;exitDy=0;exitPerimeter=0;entryX=0;entryY=1;entryDx=0;entryDy=0;" edge="1" parent="1" source="dp5F_s6Nj8RVhwZsUuF0-8" target="dp5F_s6Nj8RVhwZsUuF0-9">
          <mxGeometry width="50" height="50" relative="1" as="geometry">
            <mxPoint x="480" y="545" as="sourcePoint" />
            <mxPoint x="470" y="555" as="targetPoint" />
          </mxGeometry>
        </mxCell>
        <mxCell id="dp5F_s6Nj8RVhwZsUuF0-11" value="" style="endArrow=classic;html=1;rounded=0;exitX=1;exitY=0;exitDx=0;exitDy=0;entryX=0;entryY=1;entryDx=0;entryDy=0;entryPerimeter=0;" edge="1" parent="1" source="dp5F_s6Nj8RVhwZsUuF0-9" target="dp5F_s6Nj8RVhwZsUuF0-5">
          <mxGeometry width="50" height="50" relative="1" as="geometry">
            <mxPoint x="460" y="525" as="sourcePoint" />
            <mxPoint x="510" y="475" as="targetPoint" />
          </mxGeometry>
        </mxCell>
        <mxCell id="dp5F_s6Nj8RVhwZsUuF0-12" value="Müşteriye Bilgilendirme Yapma" style="ellipse;whiteSpace=wrap;html=1;" vertex="1" parent="1">
          <mxGeometry x="660" y="200" width="120" height="80" as="geometry" />
        </mxCell>
        <mxCell id="dp5F_s6Nj8RVhwZsUuF0-14" value="" style="endArrow=none;html=1;rounded=0;entryX=1;entryY=0.3333333333333333;entryDx=0;entryDy=0;entryPerimeter=0;exitX=0.5;exitY=1;exitDx=0;exitDy=0;" edge="1" parent="1" source="dp5F_s6Nj8RVhwZsUuF0-12" target="dp5F_s6Nj8RVhwZsUuF0-5">
          <mxGeometry width="50" height="50" relative="1" as="geometry">
            <mxPoint x="440" y="335" as="sourcePoint" />
            <mxPoint x="490" y="285" as="targetPoint" />
          </mxGeometry>
        </mxCell>
        <mxCell id="dp5F_s6Nj8RVhwZsUuF0-17" value="" style="endArrow=none;html=1;rounded=0;exitX=1;exitY=1;exitDx=0;exitDy=0;exitPerimeter=0;entryX=0.02;entryY=0.608;entryDx=0;entryDy=0;entryPerimeter=0;" edge="1" parent="1" source="dp5F_s6Nj8RVhwZsUuF0-4" target="dp5F_s6Nj8RVhwZsUuF0-6">
          <mxGeometry width="50" height="50" relative="1" as="geometry">
            <mxPoint x="120" y="535" as="sourcePoint" />
            <mxPoint x="170" y="485" as="targetPoint" />
          </mxGeometry>
        </mxCell>
        <mxCell id="dp5F_s6Nj8RVhwZsUuF0-18" value="" style="endArrow=none;html=1;rounded=0;exitX=0.5;exitY=0;exitDx=0;exitDy=0;exitPerimeter=0;entryX=0;entryY=0.5;entryDx=0;entryDy=0;" edge="1" parent="1" source="dp5F_s6Nj8RVhwZsUuF0-4" target="dp5F_s6Nj8RVhwZsUuF0-7">
          <mxGeometry width="50" height="50" relative="1" as="geometry">
            <mxPoint x="130" y="211" as="sourcePoint" />
            <mxPoint x="187.5" y="365" as="targetPoint" />
          </mxGeometry>
        </mxCell>
        <mxCell id="dp5F_s6Nj8RVhwZsUuF0-19" value="Bilgi Alma" style="ellipse;whiteSpace=wrap;html=1;" vertex="1" parent="1">
          <mxGeometry x="380" y="295" width="120" height="80" as="geometry" />
        </mxCell>
        <mxCell id="dp5F_s6Nj8RVhwZsUuF0-20" value="" style="endArrow=classic;html=1;rounded=0;exitX=0;exitY=0.3333333333333333;exitDx=0;exitDy=0;exitPerimeter=0;entryX=1;entryY=0.5;entryDx=0;entryDy=0;" edge="1" parent="1" source="dp5F_s6Nj8RVhwZsUuF0-5" target="dp5F_s6Nj8RVhwZsUuF0-19">
          <mxGeometry width="50" height="50" relative="1" as="geometry">
            <mxPoint x="230" y="445" as="sourcePoint" />
            <mxPoint x="280" y="395" as="targetPoint" />
          </mxGeometry>
        </mxCell>
        <mxCell id="dp5F_s6Nj8RVhwZsUuF0-21" value="" style="endArrow=classic;html=1;rounded=0;exitX=0;exitY=0.5;exitDx=0;exitDy=0;entryX=0.5;entryY=0.5;entryDx=0;entryDy=0;entryPerimeter=0;" edge="1" parent="1" source="dp5F_s6Nj8RVhwZsUuF0-19" target="dp5F_s6Nj8RVhwZsUuF0-4">
          <mxGeometry width="50" height="50" relative="1" as="geometry">
            <mxPoint x="150" y="415" as="sourcePoint" />
            <mxPoint x="140" y="290" as="targetPoint" />
          </mxGeometry>
        </mxCell>
        <mxCell id="dp5F_s6Nj8RVhwZsUuF0-22" value="Test Sürüşü Yapma" style="ellipse;whiteSpace=wrap;html=1;" vertex="1" parent="1">
          <mxGeometry x="270" y="225" width="120" height="80" as="geometry" />
        </mxCell>
        <mxCell id="dp5F_s6Nj8RVhwZsUuF0-23" value="Müşteri Kaydını Güncelleme" style="ellipse;whiteSpace=wrap;html=1;" vertex="1" parent="1">
          <mxGeometry x="490" y="30" width="120" height="80" as="geometry" />
        </mxCell>
        <mxCell id="dp5F_s6Nj8RVhwZsUuF0-26" value="" style="endArrow=none;html=1;rounded=0;exitX=1;exitY=0.3333333333333333;exitDx=0;exitDy=0;exitPerimeter=0;entryX=0;entryY=0.5;entryDx=0;entryDy=0;" edge="1" parent="1" source="dp5F_s6Nj8RVhwZsUuF0-4" target="dp5F_s6Nj8RVhwZsUuF0-22">
          <mxGeometry width="50" height="50" relative="1" as="geometry">
            <mxPoint x="280" y="435" as="sourcePoint" />
            <mxPoint x="330" y="385" as="targetPoint" />
          </mxGeometry>
        </mxCell>
        <mxCell id="dp5F_s6Nj8RVhwZsUuF0-27" value="Bilgi Girişi" style="ellipse;whiteSpace=wrap;html=1;" vertex="1" parent="1">
          <mxGeometry x="170" y="30" width="120" height="80" as="geometry" />
        </mxCell>
        <mxCell id="dp5F_s6Nj8RVhwZsUuF0-30" value="&amp;lt;&amp;lt;include&amp;gt;&amp;gt;" style="text;html=1;align=center;verticalAlign=middle;whiteSpace=wrap;rounded=0;" vertex="1" parent="1">
          <mxGeometry x="230" y="130" width="60" height="30" as="geometry" />
        </mxCell>
        <mxCell id="dp5F_s6Nj8RVhwZsUuF0-31" value="Satışı Onaylama" style="ellipse;whiteSpace=wrap;html=1;" vertex="1" parent="1">
          <mxGeometry x="500" y="200" width="120" height="80" as="geometry" />
        </mxCell>
        <mxCell id="dp5F_s6Nj8RVhwZsUuF0-32" value="" style="endArrow=none;html=1;rounded=0;exitX=0.25;exitY=0.1;exitDx=0;exitDy=0;exitPerimeter=0;entryX=1;entryY=1;entryDx=0;entryDy=0;" edge="1" parent="1" source="dp5F_s6Nj8RVhwZsUuF0-5" target="dp5F_s6Nj8RVhwZsUuF0-31">
          <mxGeometry width="50" height="50" relative="1" as="geometry">
            <mxPoint x="490" y="235" as="sourcePoint" />
            <mxPoint x="540" y="185" as="targetPoint" />
          </mxGeometry>
        </mxCell>
        <mxCell id="dp5F_s6Nj8RVhwZsUuF0-41" value="" style="html=1;labelBackgroundColor=#ffffff;startArrow=none;startFill=0;startSize=6;endArrow=classic;endFill=1;endSize=6;jettySize=auto;orthogonalLoop=1;strokeWidth=1;dashed=1;fontSize=14;rounded=0;exitX=0.5;exitY=0;exitDx=0;exitDy=0;entryX=0.5;entryY=1;entryDx=0;entryDy=0;" edge="1" parent="1" source="dp5F_s6Nj8RVhwZsUuF0-7" target="dp5F_s6Nj8RVhwZsUuF0-27">
          <mxGeometry width="60" height="60" relative="1" as="geometry">
            <mxPoint x="410" y="150" as="sourcePoint" />
            <mxPoint x="470" y="90" as="targetPoint" />
          </mxGeometry>
        </mxCell>
        <mxCell id="dp5F_s6Nj8RVhwZsUuF0-42" value="" style="html=1;labelBackgroundColor=#ffffff;startArrow=none;startFill=0;startSize=6;endArrow=classic;endFill=1;endSize=6;jettySize=auto;orthogonalLoop=1;strokeWidth=1;dashed=1;fontSize=14;rounded=0;exitX=0.5;exitY=0;exitDx=0;exitDy=0;entryX=0;entryY=1;entryDx=0;entryDy=0;" edge="1" parent="1" source="dp5F_s6Nj8RVhwZsUuF0-19" target="dp5F_s6Nj8RVhwZsUuF0-23">
          <mxGeometry width="60" height="60" relative="1" as="geometry">
            <mxPoint x="420" y="160" as="sourcePoint" />
            <mxPoint x="480" y="100" as="targetPoint" />
          </mxGeometry>
        </mxCell>
        <mxCell id="dp5F_s6Nj8RVhwZsUuF0-43" value="" style="html=1;labelBackgroundColor=#ffffff;startArrow=none;startFill=0;startSize=6;endArrow=classic;endFill=1;endSize=6;jettySize=auto;orthogonalLoop=1;strokeWidth=1;dashed=1;fontSize=14;rounded=0;exitX=0.5;exitY=0;exitDx=0;exitDy=0;entryX=0.5;entryY=1;entryDx=0;entryDy=0;" edge="1" parent="1" source="dp5F_s6Nj8RVhwZsUuF0-31" target="dp5F_s6Nj8RVhwZsUuF0-23">
          <mxGeometry width="60" height="60" relative="1" as="geometry">
            <mxPoint x="430" y="170" as="sourcePoint" />
            <mxPoint x="490" y="110" as="targetPoint" />
          </mxGeometry>
        </mxCell>
        <mxCell id="dp5F_s6Nj8RVhwZsUuF0-44" value="" style="html=1;labelBackgroundColor=#ffffff;startArrow=none;startFill=0;startSize=6;endArrow=classic;endFill=1;endSize=6;jettySize=auto;orthogonalLoop=1;strokeWidth=1;dashed=1;fontSize=14;rounded=0;exitX=0;exitY=0;exitDx=0;exitDy=0;entryX=1;entryY=1;entryDx=0;entryDy=0;" edge="1" parent="1" source="dp5F_s6Nj8RVhwZsUuF0-12" target="dp5F_s6Nj8RVhwZsUuF0-23">
          <mxGeometry width="60" height="60" relative="1" as="geometry">
            <mxPoint x="440" y="180" as="sourcePoint" />
            <mxPoint x="500" y="120" as="targetPoint" />
          </mxGeometry>
        </mxCell>
        <mxCell id="dp5F_s6Nj8RVhwZsUuF0-47" value="&amp;lt;&amp;lt;include&amp;gt;&amp;gt;" style="text;html=1;align=center;verticalAlign=middle;whiteSpace=wrap;rounded=0;" vertex="1" parent="1">
          <mxGeometry x="330" y="140" width="60" height="30" as="geometry" />
        </mxCell>
        <mxCell id="dp5F_s6Nj8RVhwZsUuF0-48" value="&amp;lt;&amp;lt;include&amp;gt;&amp;gt;" style="text;html=1;align=center;verticalAlign=middle;whiteSpace=wrap;rounded=0;" vertex="1" parent="1">
          <mxGeometry x="550" y="130" width="60" height="30" as="geometry" />
        </mxCell>
        <mxCell id="dp5F_s6Nj8RVhwZsUuF0-49" value="&amp;lt;&amp;lt;include&amp;gt;&amp;gt;" style="text;html=1;align=center;verticalAlign=middle;whiteSpace=wrap;rounded=0;" vertex="1" parent="1">
          <mxGeometry x="620" y="120" width="60" height="30" as="geometry" />
        </mxCell>
        <mxCell id="dp5F_s6Nj8RVhwZsUuF0-50" value="" style="html=1;labelBackgroundColor=#ffffff;startArrow=none;startFill=0;startSize=6;endArrow=classic;endFill=1;endSize=6;jettySize=auto;orthogonalLoop=1;strokeWidth=1;dashed=1;fontSize=14;rounded=0;exitX=0.5;exitY=0;exitDx=0;exitDy=0;entryX=0;entryY=0.5;entryDx=0;entryDy=0;" edge="1" parent="1" source="dp5F_s6Nj8RVhwZsUuF0-22" target="dp5F_s6Nj8RVhwZsUuF0-23">
          <mxGeometry width="60" height="60" relative="1" as="geometry">
            <mxPoint x="350" y="150" as="sourcePoint" />
            <mxPoint x="410" y="90" as="targetPoint" />
          </mxGeometry>
        </mxCell>
        <mxCell id="dp5F_s6Nj8RVhwZsUuF0-54" value="&amp;lt;&amp;lt;include&amp;gt;&amp;gt;" style="text;html=1;align=center;verticalAlign=middle;whiteSpace=wrap;rounded=0;" vertex="1" parent="1">
          <mxGeometry x="440" y="130" width="60" height="30" as="geometry" />
        </mxCell>
      </root>
    </mxGraphModel>
  </diagram>
</mxfile>
